<svg width="172" height="34" viewBox="0 0 172 34" fill="none" xmlns="http://www.w3.org/2000/svg">
<path d="M0 33.1765V0.705882H8.48219V25.7647H16.1397V33.1765H0Z" fill="#ED1C24"/>
<path d="M18.4959 33.1765V0.705882H26.8603V33.1765H18.4959Z" fill="#ED1C24"/>
<path d="M29.5699 33.1765V0.705882H39.5836C41.4685 0.705882 43.4712 0.823529 45.0027 1.17647C46.5342 1.52941 47.8301 2.47059 49.0082 3.88235C50.1863 5.29412 50.7753 7.52941 50.7753 10.5882C50.7753 11.7647 50.6575 12.8235 50.5397 13.6471C50.3041 14.5882 50.0685 15.4118 49.7151 16.1176C49.0082 17.5294 48.0658 19.4118 47.0055 20C45.8274 20.5882 44.6493 20.9412 43.4712 21.0588C42.8822 21.0588 42.1753 21.1765 41.3507 21.1765C40.526 21.1765 39.2301 21.2941 38.2877 21.2941V32.9412H29.5699V33.1765ZM37.9342 14.2353H38.2877C39.7014 14.2353 40.1726 14.2353 40.8795 13.8824C41.5863 13.5294 41.9397 13.2941 42.0575 12.7059C42.1753 12.3529 42.1753 11.8824 42.2932 11.5294C42.411 11.2941 42.411 10.8235 42.411 10.2353C42.411 8.70588 42.1753 8.35294 41.5863 7.88235C40.9973 7.41176 40.8795 7.52941 39.8192 7.52941L38.7589 7.41177H37.9342V14.2353Z" fill="#ED1C24"/>
<path d="M52.4247 23.8824V9.64706C52.4247 7.88235 52.6603 6.47059 53.2493 5.17647C53.7206 3.88235 54.5452 2.94118 55.4877 2.23529C57.3726 0.705882 59.8466 0 62.9096 0C64.3233 0 65.6192 0.117647 66.7973 0.470588C67.9753 0.823529 69.1534 1.41176 70.0959 2.11765C71.0384 2.82353 71.863 3.88235 72.3343 5.17647C72.9233 6.47059 73.1589 7.88235 73.1589 9.64706V23.8824C73.1589 24.9412 73.0411 26 72.8055 26.9412C72.5699 27.8824 72.3342 28.7059 71.9808 29.5294C71.274 30.9412 70.2137 32.1176 68.6822 32.8235C67.1507 33.5294 65.1479 34 62.5562 34C60.0822 34 58.0795 33.5294 56.6658 32.7059C55.1342 31.8824 54.074 30.7059 53.4849 29.1765C53.1315 28.3529 52.8959 27.5294 52.6603 26.7059C52.4247 25.7647 52.4247 24.8235 52.4247 23.8824ZM60.6712 8.94118L60.5534 9.64706V24C60.5534 25.1765 60.789 26.2353 61.2603 26.9412C61.7315 27.7647 61.8493 27.7647 62.7918 27.7647C63.7342 27.7647 64.0877 27.6471 64.4411 26.9412C64.6767 26.5882 64.7945 26.1176 64.9123 25.5294C65.0301 24.9412 65.0301 24.3529 65.0301 23.5294V8.94118C65.0301 7.88235 64.7945 7.52941 64.3233 7.05882C63.8521 6.58824 63.6164 6.23529 62.674 6.23529C61.9671 6.23529 61.8493 6.47059 61.4959 7.05882C61.1425 7.52941 60.789 7.88235 60.6712 8.94118Z" fill="#ED1C24"/>
<path d="M79.5206 33.1765L74.4548 0.705882H82.1123L84.1151 19.5294L84.9397 19.4118L87.2959 0.705882H95.5425L89.063 33.0588H79.5206V33.1765Z" fill="#ED1C24"/>
<path d="M97.3096 33.1765V0.705882H105.438V33.1765H97.3096Z" fill="#ED1C24"/>
<path d="M112.742 33.1765V7.88235H107.441V0.705882H125.23V7.88235H120.518V33.0588H112.742V33.1765Z" fill="#ED1C24"/>
<path d="M125.112 33.1765L131.356 0.823529H141.37L147.496 33.1765H139.603L138.66 27.1765H133.477L132.652 33.1765H125.112ZM134.184 21.1765H138.307L136.658 10.4706H135.951L134.184 21.1765Z" fill="#ED1C24"/>
<path d="M149.616 33.1765V0.705882H158.216L163.871 17.0588V16.9412L163.989 0.705882H172V33.0588H162.458L157.745 17.5294L157.038 17.7647V33.1765H149.616Z" fill="#ED1C24"/>
</svg>
